<svg xmlns="http://www.w3.org/2000/svg" xmlns:xlink="http://www.w3.org/1999/xlink" width="500" zoomAndPan="magnify" viewBox="0 0 375 149.999998" height="200" preserveAspectRatio="xMidYMid meet" version="1.0"><defs><g/><clipPath id="489b347928"><path d="M 21 25.832031 L 121 25.832031 L 121 124.082031 L 21 124.082031 Z M 21 25.832031 " clip-rule="nonzero"/></clipPath></defs><g clip-path="url(#489b347928)"><path fill="#000000" d="M 113.96875 99.296875 C 114.996094 97.484375 115.90625 95.617188 116.699219 93.691406 C 117.488281 91.765625 118.15625 89.796875 118.695312 87.785156 C 119.238281 85.773438 119.648438 83.738281 119.929688 81.675781 C 120.210938 79.613281 120.359375 77.539062 120.375 75.457031 C 120.390625 73.375 120.277344 71.300781 120.03125 69.234375 C 119.78125 67.167969 119.402344 65.125 118.894531 63.105469 C 118.386719 61.085938 117.753906 59.105469 116.992188 57.167969 C 116.234375 55.230469 115.351562 53.347656 114.351562 51.519531 C 114.277344 51.371094 114.191406 51.230469 114.09375 51.09375 C 113.027344 49.191406 111.839844 47.371094 110.53125 45.628906 C 109.222656 43.886719 107.804688 42.238281 106.277344 40.683594 C 104.75 39.128906 103.125 37.679688 101.402344 36.339844 C 99.683594 35 97.882812 33.78125 96 32.679688 C 94.117188 31.578125 92.167969 30.605469 90.15625 29.765625 C 88.144531 28.921875 86.085938 28.214844 83.976562 27.644531 C 81.871094 27.074219 79.738281 26.644531 77.574219 26.355469 C 75.410156 26.070312 73.238281 25.925781 71.054688 25.925781 C 68.875 25.925781 66.699219 26.070312 64.539062 26.355469 C 62.375 26.644531 60.238281 27.074219 58.132812 27.644531 C 56.027344 28.214844 53.96875 28.921875 51.957031 29.765625 C 49.945312 30.605469 47.996094 31.578125 46.113281 32.679688 C 44.230469 33.78125 42.429688 35 40.707031 36.339844 C 38.988281 37.679688 37.363281 39.128906 35.835938 40.683594 C 34.308594 42.238281 32.890625 43.886719 31.582031 45.628906 C 30.269531 47.371094 29.082031 49.191406 28.015625 51.09375 C 27.921875 51.238281 27.835938 51.386719 27.757812 51.542969 C 26.777344 53.339844 25.910156 55.195312 25.160156 57.101562 C 24.410156 59.007812 23.785156 60.953125 23.277344 62.9375 C 22.769531 64.925781 22.390625 66.933594 22.132812 68.964844 C 21.878906 71 21.75 73.039062 21.75 75.085938 C 21.75 77.136719 21.878906 79.175781 22.132812 81.210938 C 22.390625 83.242188 22.769531 85.25 23.277344 87.234375 C 23.785156 89.222656 24.410156 91.167969 25.160156 93.074219 C 25.910156 94.980469 26.777344 96.832031 27.757812 98.632812 L 27.996094 99.039062 C 29.058594 100.9375 30.242188 102.753906 31.550781 104.492188 C 32.855469 106.234375 34.269531 107.878906 35.792969 109.433594 C 37.316406 110.984375 38.933594 112.429688 40.652344 113.769531 C 42.367188 115.109375 44.164062 116.328125 46.039062 117.429688 C 47.917969 118.53125 49.859375 119.503906 51.867188 120.347656 C 53.871094 121.191406 55.925781 121.902344 58.027344 122.476562 C 60.128906 123.046875 62.257812 123.480469 64.414062 123.773438 C 66.574219 124.066406 68.742188 124.214844 70.917969 124.21875 C 73.097656 124.222656 75.265625 124.085938 77.425781 123.804688 C 79.582031 123.523438 81.714844 123.101562 83.820312 122.539062 C 85.921875 121.976562 87.980469 121.277344 89.988281 120.441406 C 92 119.609375 93.945312 118.644531 95.828125 117.554688 C 97.714844 116.460938 99.515625 115.25 101.238281 113.917969 C 102.960938 112.589844 104.585938 111.152344 106.117188 109.605469 C 107.648438 108.0625 109.070312 106.421875 110.386719 104.691406 C 111.699219 102.957031 112.894531 101.144531 113.96875 99.253906 Z M 71.066406 115.734375 C 70.617188 115.734375 70.1875 115.734375 69.757812 115.734375 C 64.648438 109.828125 60.792969 103.191406 58.195312 95.828125 C 62.207031 95.421875 66.539062 95.1875 71.066406 95.1875 C 75.59375 95.1875 79.945312 95.445312 83.9375 95.828125 C 81.339844 103.191406 77.488281 109.828125 72.375 115.734375 C 71.945312 115.734375 71.515625 115.734375 71.066406 115.734375 Z M 71.066406 86.625 C 65.972656 86.628906 60.898438 86.914062 55.835938 87.480469 C 54.132812 79.203125 54.132812 70.925781 55.835938 62.652344 C 60.898438 63.214844 65.972656 63.5 71.066406 63.507812 C 76.160156 63.5 81.234375 63.214844 86.296875 62.652344 C 88 70.925781 88 79.203125 86.296875 87.480469 C 81.234375 86.914062 76.160156 86.628906 71.066406 86.625 Z M 30.3125 75.066406 C 30.320312 69.289062 31.511719 63.765625 33.894531 58.5 C 37.21875 59.417969 41.808594 60.53125 47.34375 61.472656 C 45.554688 70.542969 45.554688 79.609375 47.34375 88.679688 C 41.808594 89.621094 37.238281 90.820312 33.894531 91.65625 C 31.507812 86.382812 30.316406 80.851562 30.3125 75.066406 Z M 71.066406 34.394531 C 71.515625 34.394531 71.945312 34.394531 72.375 34.394531 C 77.488281 40.304688 81.339844 46.941406 83.9375 54.304688 C 79.925781 54.710938 75.59375 54.945312 71.066406 54.945312 C 66.539062 54.945312 62.1875 54.6875 58.195312 54.304688 C 60.792969 46.941406 64.644531 40.304688 69.757812 34.394531 C 70.1875 34.394531 70.617188 34.394531 71.066406 34.394531 Z M 94.8125 61.453125 C 100.347656 60.511719 104.914062 59.3125 108.261719 58.476562 C 109.441406 61.082031 110.332031 63.78125 110.933594 66.574219 C 111.535156 69.371094 111.839844 72.195312 111.839844 75.054688 C 111.839844 77.914062 111.535156 80.738281 110.933594 83.535156 C 110.332031 86.328125 109.441406 89.027344 108.261719 91.632812 C 104.9375 90.714844 100.347656 89.601562 94.8125 88.65625 C 96.601562 79.589844 96.601562 70.519531 94.8125 61.453125 Z M 103.734375 50.75 C 100.753906 51.519531 97 52.355469 92.644531 53.0625 C 90.753906 47.289062 88.160156 41.851562 84.859375 36.75 C 88.625 38.125 92.113281 40.011719 95.324219 42.410156 C 98.535156 44.808594 101.332031 47.617188 103.714844 50.835938 Z M 57.273438 36.835938 C 53.972656 41.9375 51.378906 47.375 49.488281 53.148438 C 45.199219 52.417969 41.402344 51.605469 38.398438 50.835938 C 40.789062 47.628906 43.59375 44.835938 46.804688 42.453125 C 50.019531 40.070312 53.507812 38.195312 57.273438 36.835938 Z M 38.421875 99.296875 C 41.402344 98.527344 45.15625 97.691406 49.507812 96.984375 C 51.398438 102.757812 53.996094 108.195312 57.296875 113.296875 C 53.53125 111.933594 50.042969 110.0625 46.828125 107.679688 C 43.613281 105.296875 40.8125 102.5 38.421875 99.296875 Z M 84.859375 113.296875 C 88.160156 108.195312 90.753906 102.757812 92.644531 96.984375 C 96.9375 97.710938 100.730469 98.527344 103.734375 99.296875 C 101.34375 102.5 98.542969 105.296875 95.328125 107.679688 C 92.113281 110.0625 88.625 111.933594 84.859375 113.296875 Z M 84.859375 113.296875 " fill-opacity="1" fill-rule="nonzero"/></g><g fill="#000000" fill-opacity="1"><g transform="translate(139.76342, 84.944336)"><g><path d="M 17.21875 -24.734375 L 23.609375 -24.734375 C 23.867188 -24.734375 24.09375 -24.640625 24.28125 -24.453125 C 24.46875 -24.265625 24.5625 -24.039062 24.5625 -23.78125 L 24.5625 -0.953125 C 24.5625 -0.691406 24.46875 -0.46875 24.28125 -0.28125 C 24.09375 -0.09375 23.867188 0 23.609375 0 L 18.03125 0 C 17.414062 0 16.929688 -0.269531 16.578125 -0.8125 L 10.609375 -9.828125 L 10.609375 -0.953125 C 10.609375 -0.691406 10.507812 -0.46875 10.3125 -0.28125 C 10.125 -0.09375 9.90625 0 9.65625 0 L 3.25 0 C 2.988281 0 2.765625 -0.09375 2.578125 -0.28125 C 2.390625 -0.46875 2.296875 -0.691406 2.296875 -0.953125 L 2.296875 -23.78125 C 2.296875 -24.039062 2.390625 -24.265625 2.578125 -24.453125 C 2.765625 -24.640625 2.988281 -24.734375 3.25 -24.734375 L 8.828125 -24.734375 C 9.492188 -24.734375 9.976562 -24.460938 10.28125 -23.921875 L 16.265625 -14.140625 L 16.265625 -23.78125 C 16.265625 -24.039062 16.359375 -24.265625 16.546875 -24.453125 C 16.734375 -24.640625 16.957031 -24.734375 17.21875 -24.734375 Z M 17.21875 -24.734375 "/></g></g></g><g fill="#000000" fill-opacity="1"><g transform="translate(166.624637, 84.944336)"><g><path d="M 20.421875 -7.109375 L 9.890625 -7.109375 L 9.890625 -6.921875 C 9.890625 -5.484375 10.351562 -4.765625 11.28125 -4.765625 C 11.53125 -4.765625 11.84375 -4.953125 12.21875 -5.328125 C 12.601562 -5.710938 13.019531 -5.90625 13.46875 -5.90625 L 20.140625 -5.90625 C 20.660156 -5.90625 20.921875 -5.644531 20.921875 -5.125 C 20.921875 -3.96875 20.054688 -2.765625 18.328125 -1.515625 C 16.597656 -0.265625 14.253906 0.359375 11.296875 0.359375 C 8.335938 0.359375 5.921875 -0.410156 4.046875 -1.953125 C 2.171875 -3.503906 1.234375 -5.632812 1.234375 -8.34375 L 1.234375 -10.03125 C 1.234375 -12.601562 2.1875 -14.695312 4.09375 -16.3125 C 6.007812 -17.925781 8.515625 -18.734375 11.609375 -18.734375 C 14.710938 -18.734375 17.117188 -17.828125 18.828125 -16.015625 C 20.535156 -14.203125 21.390625 -11.90625 21.390625 -9.125 L 21.390625 -8.0625 C 21.390625 -7.800781 21.289062 -7.578125 21.09375 -7.390625 C 20.90625 -7.203125 20.679688 -7.109375 20.421875 -7.109375 Z M 12.71875 -11.65625 C 12.71875 -13.070312 12.242188 -13.78125 11.296875 -13.78125 C 10.359375 -13.78125 9.890625 -13.070312 9.890625 -11.65625 L 9.890625 -11.515625 L 12.71875 -11.515625 Z M 12.71875 -11.65625 "/></g></g></g><g fill="#000000" fill-opacity="1"><g transform="translate(189.244601, 84.944336)"><g><path d="M 12.375 -12.1875 L 12.375 -8.3125 C 12.375 -7.125 12.878906 -6.53125 13.890625 -6.53125 L 17.109375 -6.53125 C 17.367188 -6.53125 17.59375 -6.4375 17.78125 -6.25 C 17.96875 -6.0625 18.0625 -5.835938 18.0625 -5.578125 L 18.0625 -0.953125 C 18.0625 -0.691406 17.96875 -0.46875 17.78125 -0.28125 C 17.59375 -0.09375 17.367188 0 17.109375 0 L 13.109375 0 C 7.222656 0 4.28125 -2.53125 4.28125 -7.59375 L 4.28125 -12.1875 L 1.484375 -12.1875 C 1.222656 -12.1875 1 -12.28125 0.8125 -12.46875 C 0.625 -12.664062 0.53125 -12.890625 0.53125 -13.140625 L 0.53125 -17.421875 C 0.53125 -17.679688 0.625 -17.90625 0.8125 -18.09375 C 1 -18.28125 1.222656 -18.375 1.484375 -18.375 L 4.28125 -18.375 L 4.28125 -24.140625 C 4.28125 -24.398438 4.375 -24.625 4.5625 -24.8125 C 4.75 -25 4.972656 -25.09375 5.234375 -25.09375 L 11.421875 -25.09375 C 11.679688 -25.09375 11.90625 -25 12.09375 -24.8125 C 12.28125 -24.625 12.375 -24.398438 12.375 -24.140625 L 12.375 -18.375 L 16.828125 -18.375 C 17.085938 -18.375 17.3125 -18.28125 17.5 -18.09375 C 17.6875 -17.90625 17.78125 -17.679688 17.78125 -17.421875 L 17.78125 -13.140625 C 17.78125 -12.890625 17.6875 -12.664062 17.5 -12.46875 C 17.3125 -12.28125 17.085938 -12.1875 16.828125 -12.1875 Z M 12.375 -12.1875 "/></g></g></g><g fill="#000000" fill-opacity="1"><g transform="translate(208.012106, 84.944336)"><g/></g></g><g fill="#000000" fill-opacity="1"><g transform="translate(218.261779, 84.944336)"><g><path d="M 3.25 -24.734375 L 21.0625 -24.734375 C 21.320312 -24.734375 21.546875 -24.640625 21.734375 -24.453125 C 21.921875 -24.265625 22.015625 -24.039062 22.015625 -23.78125 L 22.015625 -18.40625 C 22.015625 -18.15625 21.921875 -17.929688 21.734375 -17.734375 C 21.546875 -17.546875 21.320312 -17.453125 21.0625 -17.453125 L 10.953125 -17.453125 L 10.953125 -14.84375 L 20.359375 -14.84375 C 20.617188 -14.84375 20.84375 -14.75 21.03125 -14.5625 C 21.21875 -14.375 21.3125 -14.148438 21.3125 -13.890625 L 21.3125 -8.546875 C 21.3125 -8.296875 21.21875 -8.070312 21.03125 -7.875 C 20.84375 -7.6875 20.617188 -7.59375 20.359375 -7.59375 L 10.953125 -7.59375 L 10.953125 -0.953125 C 10.953125 -0.691406 10.859375 -0.46875 10.671875 -0.28125 C 10.484375 -0.09375 10.257812 0 10 0 L 3.25 0 C 2.988281 0 2.765625 -0.09375 2.578125 -0.28125 C 2.390625 -0.46875 2.296875 -0.691406 2.296875 -0.953125 L 2.296875 -23.78125 C 2.296875 -24.039062 2.390625 -24.265625 2.578125 -24.453125 C 2.765625 -24.640625 2.988281 -24.734375 3.25 -24.734375 Z M 3.25 -24.734375 "/></g></g></g><g fill="#000000" fill-opacity="1"><g transform="translate(241.694657, 84.944336)"><g><path d="M 9.046875 0 L 2.71875 0 C 2.457031 0 2.234375 -0.09375 2.046875 -0.28125 C 1.859375 -0.46875 1.765625 -0.691406 1.765625 -0.953125 L 1.765625 -17.421875 C 1.765625 -17.679688 1.859375 -17.90625 2.046875 -18.09375 C 2.234375 -18.28125 2.457031 -18.375 2.71875 -18.375 L 9.046875 -18.375 C 9.304688 -18.375 9.53125 -18.28125 9.71875 -18.09375 C 9.90625 -17.90625 10 -17.679688 10 -17.421875 L 10 -0.953125 C 10 -0.691406 9.90625 -0.46875 9.71875 -0.28125 C 9.53125 -0.09375 9.304688 0 9.046875 0 Z M 9.828125 -25.203125 L 9.828125 -20.921875 C 9.828125 -20.660156 9.734375 -20.4375 9.546875 -20.25 C 9.359375 -20.0625 9.132812 -19.96875 8.875 -19.96875 L 2.890625 -19.96875 C 2.640625 -19.96875 2.414062 -20.0625 2.21875 -20.25 C 2.03125 -20.4375 1.9375 -20.660156 1.9375 -20.921875 L 1.9375 -25.203125 C 1.9375 -25.460938 2.03125 -25.6875 2.21875 -25.875 C 2.414062 -26.0625 2.640625 -26.15625 2.890625 -26.15625 L 8.875 -26.15625 C 9.132812 -26.15625 9.359375 -26.0625 9.546875 -25.875 C 9.734375 -25.6875 9.828125 -25.460938 9.828125 -25.203125 Z M 9.828125 -25.203125 "/></g></g></g><g fill="#000000" fill-opacity="1"><g transform="translate(253.464103, 84.944336)"><g><path d="M 22.578125 -10.703125 L 22.578125 -0.953125 C 22.578125 -0.691406 22.484375 -0.46875 22.296875 -0.28125 C 22.109375 -0.09375 21.882812 0 21.625 0 L 14.875 0 C 14.613281 0 14.390625 -0.09375 14.203125 -0.28125 C 14.015625 -0.46875 13.921875 -0.691406 13.921875 -0.953125 L 13.921875 -10.46875 C 13.921875 -11.757812 13.332031 -12.40625 12.15625 -12.40625 C 10.976562 -12.40625 10.390625 -11.757812 10.390625 -10.46875 L 10.390625 -0.953125 C 10.390625 -0.691406 10.296875 -0.46875 10.109375 -0.28125 C 9.921875 -0.09375 9.695312 0 9.4375 0 L 2.71875 0 C 2.457031 0 2.234375 -0.09375 2.046875 -0.28125 C 1.859375 -0.46875 1.765625 -0.691406 1.765625 -0.953125 L 1.765625 -17.421875 C 1.765625 -17.679688 1.859375 -17.90625 2.046875 -18.09375 C 2.234375 -18.28125 2.457031 -18.375 2.71875 -18.375 L 8.90625 -18.375 C 9.164062 -18.375 9.390625 -18.28125 9.578125 -18.09375 C 9.765625 -17.90625 9.859375 -17.679688 9.859375 -17.421875 L 9.859375 -16.265625 C 10.472656 -16.992188 11.300781 -17.585938 12.34375 -18.046875 C 13.394531 -18.503906 14.523438 -18.734375 15.734375 -18.734375 C 17.660156 -18.734375 19.28125 -18.054688 20.59375 -16.703125 C 21.914062 -15.347656 22.578125 -13.347656 22.578125 -10.703125 Z M 22.578125 -10.703125 "/></g></g></g><g fill="#000000" fill-opacity="1"><g transform="translate(277.639184, 84.944336)"><g><path d="M 1.234375 -7.8125 L 1.234375 -10.609375 C 1.234375 -13.242188 1.941406 -15.253906 3.359375 -16.640625 C 4.773438 -18.035156 6.5 -18.734375 8.53125 -18.734375 C 10.570312 -18.734375 12.207031 -18.179688 13.4375 -17.078125 L 13.4375 -24.140625 C 13.4375 -24.398438 13.53125 -24.625 13.71875 -24.8125 C 13.90625 -25 14.128906 -25.09375 14.390625 -25.09375 L 20.921875 -25.09375 C 21.179688 -25.09375 21.40625 -25 21.59375 -24.8125 C 21.78125 -24.625 21.875 -24.398438 21.875 -24.140625 L 21.875 -0.953125 C 21.875 -0.691406 21.78125 -0.46875 21.59375 -0.28125 C 21.40625 -0.09375 21.179688 0 20.921875 0 L 14.921875 0 C 14.660156 0 14.429688 -0.09375 14.234375 -0.28125 C 14.046875 -0.46875 13.953125 -0.691406 13.953125 -0.953125 L 13.953125 -2.015625 C 12.734375 -0.429688 11.003906 0.359375 8.765625 0.359375 C 6.523438 0.359375 4.707031 -0.304688 3.3125 -1.640625 C 1.925781 -2.972656 1.234375 -5.03125 1.234375 -7.8125 Z M 13.4375 -8.015625 L 13.4375 -10.640625 C 13.363281 -11.816406 12.769531 -12.40625 11.65625 -12.40625 C 10.476562 -12.40625 9.890625 -11.722656 9.890625 -10.359375 L 9.890625 -8.015625 C 9.890625 -6.648438 10.476562 -5.96875 11.65625 -5.96875 C 12.84375 -5.96875 13.4375 -6.648438 13.4375 -8.015625 Z M 13.4375 -8.015625 "/></g></g></g><g fill="#000000" fill-opacity="1"><g transform="translate(301.284111, 84.944336)"><g><path d="M 20.421875 -7.109375 L 9.890625 -7.109375 L 9.890625 -6.921875 C 9.890625 -5.484375 10.351562 -4.765625 11.28125 -4.765625 C 11.53125 -4.765625 11.84375 -4.953125 12.21875 -5.328125 C 12.601562 -5.710938 13.019531 -5.90625 13.46875 -5.90625 L 20.140625 -5.90625 C 20.660156 -5.90625 20.921875 -5.644531 20.921875 -5.125 C 20.921875 -3.96875 20.054688 -2.765625 18.328125 -1.515625 C 16.597656 -0.265625 14.253906 0.359375 11.296875 0.359375 C 8.335938 0.359375 5.921875 -0.410156 4.046875 -1.953125 C 2.171875 -3.503906 1.234375 -5.632812 1.234375 -8.34375 L 1.234375 -10.03125 C 1.234375 -12.601562 2.1875 -14.695312 4.09375 -16.3125 C 6.007812 -17.925781 8.515625 -18.734375 11.609375 -18.734375 C 14.710938 -18.734375 17.117188 -17.828125 18.828125 -16.015625 C 20.535156 -14.203125 21.390625 -11.90625 21.390625 -9.125 L 21.390625 -8.0625 C 21.390625 -7.800781 21.289062 -7.578125 21.09375 -7.390625 C 20.90625 -7.203125 20.679688 -7.109375 20.421875 -7.109375 Z M 12.71875 -11.65625 C 12.71875 -13.070312 12.242188 -13.78125 11.296875 -13.78125 C 10.359375 -13.78125 9.890625 -13.070312 9.890625 -11.65625 L 9.890625 -11.515625 L 12.71875 -11.515625 Z M 12.71875 -11.65625 "/></g></g></g><g fill="#000000" fill-opacity="1"><g transform="translate(323.904075, 84.944336)"><g><path d="M 9.5 -17.421875 L 9.5 -16.1875 C 11.15625 -17.644531 12.992188 -18.375 15.015625 -18.375 L 16.71875 -18.375 C 16.976562 -18.375 17.203125 -18.28125 17.390625 -18.09375 C 17.578125 -17.90625 17.671875 -17.679688 17.671875 -17.421875 L 17.671875 -11.90625 C 17.671875 -11.644531 17.578125 -11.421875 17.390625 -11.234375 C 17.203125 -11.046875 16.976562 -10.953125 16.71875 -10.953125 L 12.15625 -10.953125 C 11.519531 -10.953125 11.019531 -10.804688 10.65625 -10.515625 C 10.289062 -10.222656 10.082031 -9.828125 10.03125 -9.328125 L 10.03125 -0.953125 C 10.03125 -0.691406 9.9375 -0.46875 9.75 -0.28125 C 9.5625 -0.09375 9.335938 0 9.078125 0 L 2.375 0 C 2.113281 0 1.882812 -0.09375 1.6875 -0.28125 C 1.5 -0.46875 1.40625 -0.691406 1.40625 -0.953125 L 1.40625 -17.421875 C 1.40625 -17.679688 1.5 -17.90625 1.6875 -18.09375 C 1.882812 -18.28125 2.113281 -18.375 2.375 -18.375 L 8.546875 -18.375 C 8.804688 -18.375 9.03125 -18.28125 9.21875 -18.09375 C 9.40625 -17.90625 9.5 -17.679688 9.5 -17.421875 Z M 9.5 -17.421875 "/></g></g></g></svg>